<svg xmlns="http://www.w3.org/2000/svg" xmlns:xlink="http://www.w3.org/1999/xlink" width="2000" zoomAndPan="magnify" viewBox="0 0 1500 1499.999933" height="2000" preserveAspectRatio="xMidYMid meet" version="1.0"><defs><g/><clipPath id="555e0f5507"><rect x="0" width="884" y="0" height="592"/></clipPath><clipPath id="bf6b9ae38e"><rect x="0" width="911" y="0" height="592"/></clipPath><clipPath id="a356fbdadc"><rect x="0" width="284" y="0" height="512"/></clipPath></defs><rect x="-150" width="1800" fill="#ffffff" y="-149.999993" height="1799.99992" fill-opacity="1"/><rect x="-150" width="1800" fill="#ffffff" y="-149.999993" height="1799.99992" fill-opacity="1"/><g transform="matrix(1, 0, 0, 1, 150, 558)"><g clip-path="url(#555e0f5507)"><g fill="#000000" fill-opacity="1"><g transform="translate(0.00002043, 440.232528)"><g><path d="M 157.296875 -61.140625 L 157.296875 0 L 120.609375 0 C 94.460938 0 74.078125 -6.394531 59.453125 -19.1875 C 44.835938 -31.976562 37.53125 -52.851562 37.53125 -81.8125 L 37.53125 -175.421875 L 8.859375 -175.421875 L 8.859375 -235.296875 L 37.53125 -235.296875 L 37.53125 -292.65625 L 109.640625 -292.65625 L 109.640625 -235.296875 L 156.875 -235.296875 L 156.875 -175.421875 L 109.640625 -175.421875 L 109.640625 -80.96875 C 109.640625 -73.9375 111.328125 -68.875 114.703125 -65.78125 C 118.078125 -62.6875 123.695312 -61.140625 131.5625 -61.140625 Z M 157.296875 -61.140625 "/></g></g></g><g fill="#000000" fill-opacity="1"><g transform="translate(149.268572, 440.232528)"><g><path d="M 247.953125 -121.453125 C 247.953125 -114.703125 247.53125 -107.671875 246.6875 -100.359375 L 83.5 -100.359375 C 84.625 -85.742188 89.332031 -74.566406 97.625 -66.828125 C 105.914062 -59.097656 116.101562 -55.234375 128.1875 -55.234375 C 146.1875 -55.234375 158.695312 -62.828125 165.71875 -78.015625 L 242.46875 -78.015625 C 238.53125 -62.546875 231.429688 -48.625 221.171875 -36.25 C 210.910156 -23.882812 198.046875 -14.1875 182.578125 -7.15625 C 167.117188 -0.132812 149.832031 3.375 130.71875 3.375 C 107.664062 3.375 87.144531 -1.539062 69.15625 -11.375 C 51.164062 -21.21875 37.109375 -35.273438 26.984375 -53.546875 C 16.867188 -71.828125 11.8125 -93.195312 11.8125 -117.65625 C 11.8125 -142.113281 16.800781 -163.476562 26.78125 -181.75 C 36.757812 -200.019531 50.742188 -214.070312 68.734375 -223.90625 C 86.722656 -233.75 107.382812 -238.671875 130.71875 -238.671875 C 153.488281 -238.671875 173.726562 -233.890625 191.4375 -224.328125 C 209.15625 -214.773438 223.003906 -201.144531 232.984375 -183.4375 C 242.960938 -165.726562 247.953125 -145.066406 247.953125 -121.453125 Z M 174.15625 -140.421875 C 174.15625 -152.785156 169.9375 -162.625 161.5 -169.9375 C 153.070312 -177.25 142.53125 -180.90625 129.875 -180.90625 C 117.789062 -180.90625 107.601562 -177.390625 99.3125 -170.359375 C 91.019531 -163.328125 85.890625 -153.347656 83.921875 -140.421875 Z M 174.15625 -140.421875 "/></g></g></g><g fill="#000000" fill-opacity="1"><g transform="translate(387.087219, 440.232528)"><g><path d="M 11.8125 -117.65625 C 11.8125 -142.113281 16.800781 -163.476562 26.78125 -181.75 C 36.757812 -200.019531 50.671875 -214.070312 68.515625 -223.90625 C 86.367188 -233.75 106.820312 -238.671875 129.875 -238.671875 C 159.394531 -238.671875 184.0625 -230.941406 203.875 -215.484375 C 223.695312 -200.023438 236.703125 -178.238281 242.890625 -150.125 L 166.140625 -150.125 C 159.679688 -168.113281 147.171875 -177.109375 128.609375 -177.109375 C 115.398438 -177.109375 104.859375 -171.976562 96.984375 -161.71875 C 89.117188 -151.457031 85.1875 -136.769531 85.1875 -117.65625 C 85.1875 -98.53125 89.117188 -83.835938 96.984375 -73.578125 C 104.859375 -63.316406 115.398438 -58.1875 128.609375 -58.1875 C 147.171875 -58.1875 159.679688 -67.1875 166.140625 -85.1875 L 242.890625 -85.1875 C 236.703125 -57.632812 223.628906 -35.984375 203.671875 -20.234375 C 183.710938 -4.492188 159.113281 3.375 129.875 3.375 C 106.820312 3.375 86.367188 -1.539062 68.515625 -11.375 C 50.671875 -21.21875 36.757812 -35.273438 26.78125 -53.546875 C 16.800781 -71.828125 11.8125 -93.195312 11.8125 -117.65625 Z M 11.8125 -117.65625 "/></g></g></g><g fill="#000000" fill-opacity="1"><g transform="translate(620.267533, 440.232528)"><g><path d="M 170.78125 -237.828125 C 197.769531 -237.828125 219.414062 -228.898438 235.71875 -211.046875 C 252.03125 -193.203125 260.1875 -168.675781 260.1875 -137.46875 L 260.1875 0 L 188.5 0 L 188.5 -127.765625 C 188.5 -143.515625 184.421875 -155.742188 176.265625 -164.453125 C 168.109375 -173.171875 157.144531 -177.53125 143.375 -177.53125 C 129.601562 -177.53125 118.640625 -173.171875 110.484375 -164.453125 C 102.328125 -155.742188 98.25 -143.515625 98.25 -127.765625 L 98.25 0 L 26.140625 0 L 26.140625 -312.046875 L 98.25 -312.046875 L 98.25 -203.671875 C 105.5625 -214.078125 115.539062 -222.367188 128.1875 -228.546875 C 140.84375 -234.734375 155.039062 -237.828125 170.78125 -237.828125 Z M 170.78125 -237.828125 "/></g></g></g></g></g><g transform="matrix(1, 0, 0, 1, 153, 296)"><g clip-path="url(#bf6b9ae38e)"><g fill="#03bfb5" fill-opacity="1"><g transform="translate(0.945137, 440.434826)"><g><path d="M 143.984375 -175.140625 L 105.25 -175.140625 L 105.25 0 L 33.265625 0 L 33.265625 -175.140625 L 7.15625 -175.140625 L 7.15625 -234.921875 L 33.265625 -234.921875 L 33.265625 -241.65625 C 33.265625 -270.5625 41.539062 -292.519531 58.09375 -307.53125 C 74.65625 -322.550781 98.9375 -330.0625 130.9375 -330.0625 C 136.269531 -330.0625 140.195312 -329.921875 142.71875 -329.640625 L 142.71875 -268.59375 C 128.96875 -269.4375 119.285156 -267.472656 113.671875 -262.703125 C 108.054688 -257.929688 105.25 -249.367188 105.25 -237.015625 L 105.25 -234.921875 L 143.984375 -234.921875 Z M 143.984375 -175.140625 "/></g></g></g><g fill="#03bfb5" fill-opacity="1"><g transform="translate(130.610117, 440.434826)"><g><path d="M 62.3125 -259.34375 C 49.675781 -259.34375 39.359375 -263.0625 31.359375 -270.5 C 23.359375 -277.9375 19.359375 -287.125 19.359375 -298.0625 C 19.359375 -309.289062 23.359375 -318.625 31.359375 -326.0625 C 39.359375 -333.5 49.675781 -337.21875 62.3125 -337.21875 C 74.65625 -337.21875 84.828125 -333.5 92.828125 -326.0625 C 100.828125 -318.625 104.828125 -309.289062 104.828125 -298.0625 C 104.828125 -287.125 100.828125 -277.9375 92.828125 -270.5 C 84.828125 -263.0625 74.65625 -259.34375 62.3125 -259.34375 Z M 98.09375 -234.921875 L 98.09375 0 L 26.109375 0 L 26.109375 -234.921875 Z M 98.09375 -234.921875 "/></g></g></g><g fill="#03bfb5" fill-opacity="1"><g transform="translate(232.910484, 440.434826)"><g><path d="M 98.09375 -201.65625 C 104.832031 -212.601562 114.515625 -221.441406 127.140625 -228.171875 C 139.773438 -234.910156 154.226562 -238.28125 170.5 -238.28125 C 189.863281 -238.28125 207.40625 -233.367188 223.125 -223.546875 C 238.84375 -213.722656 251.265625 -199.691406 260.390625 -181.453125 C 269.515625 -163.210938 274.078125 -142.019531 274.078125 -117.875 C 274.078125 -93.738281 269.515625 -72.476562 260.390625 -54.09375 C 251.265625 -35.707031 238.84375 -21.53125 223.125 -11.5625 C 207.40625 -1.601562 189.863281 3.375 170.5 3.375 C 153.945312 3.375 139.492188 0.078125 127.140625 -6.515625 C 114.796875 -13.117188 105.113281 -21.894531 98.09375 -32.84375 L 98.09375 0 L 26.109375 0 L 26.109375 -311.546875 L 98.09375 -311.546875 Z M 200.8125 -117.875 C 200.8125 -135.84375 195.828125 -149.945312 185.859375 -160.1875 C 175.898438 -170.4375 163.625 -175.5625 149.03125 -175.5625 C 134.71875 -175.5625 122.578125 -170.367188 112.609375 -159.984375 C 102.648438 -149.597656 97.671875 -135.421875 97.671875 -117.453125 C 97.671875 -99.492188 102.648438 -85.320312 112.609375 -74.9375 C 122.578125 -64.550781 134.71875 -59.359375 149.03125 -59.359375 C 163.34375 -59.359375 175.550781 -64.617188 185.65625 -75.140625 C 195.757812 -85.671875 200.8125 -99.914062 200.8125 -117.875 Z M 200.8125 -117.875 "/></g></g></g><g fill="#03bfb5" fill-opacity="1"><g transform="translate(496.872596, 440.434826)"><g><path d="M 247.546875 -121.25 C 247.546875 -114.507812 247.125 -107.492188 246.28125 -100.203125 L 83.359375 -100.203125 C 84.484375 -85.609375 89.179688 -74.453125 97.453125 -66.734375 C 105.734375 -59.015625 115.910156 -55.15625 127.984375 -55.15625 C 145.941406 -55.15625 158.429688 -62.734375 165.453125 -77.890625 L 242.078125 -77.890625 C 238.148438 -62.453125 231.0625 -48.554688 220.8125 -36.203125 C 210.570312 -23.859375 197.734375 -14.175781 182.296875 -7.15625 C 166.859375 -0.132812 149.597656 3.375 130.515625 3.375 C 107.492188 3.375 87 -1.535156 69.03125 -11.359375 C 51.070312 -21.191406 37.039062 -35.226562 26.9375 -53.46875 C 16.832031 -71.707031 11.78125 -93.035156 11.78125 -117.453125 C 11.78125 -141.878906 16.757812 -163.210938 26.71875 -181.453125 C 36.6875 -199.691406 50.648438 -213.722656 68.609375 -223.546875 C 86.578125 -233.367188 107.210938 -238.28125 130.515625 -238.28125 C 153.242188 -238.28125 173.445312 -233.507812 191.125 -223.96875 C 208.8125 -214.425781 222.632812 -200.8125 232.59375 -183.125 C 242.5625 -165.445312 247.546875 -144.820312 247.546875 -121.25 Z M 173.875 -140.1875 C 173.875 -152.539062 169.660156 -162.363281 161.234375 -169.65625 C 152.816406 -176.957031 142.296875 -180.609375 129.671875 -180.609375 C 117.597656 -180.609375 107.421875 -177.097656 99.140625 -170.078125 C 90.859375 -163.066406 85.738281 -153.101562 83.78125 -140.1875 Z M 173.875 -140.1875 "/></g></g></g><g fill="#03bfb5" fill-opacity="1"><g transform="translate(734.312076, 440.434826)"><g><path d="M 98.09375 -195.765625 C 106.507812 -208.671875 117.03125 -218.84375 129.65625 -226.28125 C 142.289062 -233.71875 156.328125 -237.4375 171.765625 -237.4375 L 171.765625 -161.25 L 151.984375 -161.25 C 134.015625 -161.25 120.539062 -157.390625 111.5625 -149.671875 C 102.582031 -141.953125 98.09375 -128.40625 98.09375 -109.03125 L 98.09375 0 L 26.109375 0 L 26.109375 -234.921875 L 98.09375 -234.921875 Z M 98.09375 -195.765625 "/></g></g></g></g></g><g transform="matrix(1, 0, 0, 1, 1109, 502)"><g clip-path="url(#a356fbdadc)"><g fill="#000000" fill-opacity="1"><g transform="translate(4.613742, 65.145277)"><g><path d="M 33.6875 -48.125 L 33.921875 -38.90625 L 14.6875 -38.40625 L 14.953125 -28.453125 L 29.34375 -28.828125 L 29.5625 -19.890625 L 15.171875 -19.515625 L 15.671875 -0.40625 L 4.171875 -0.109375 L 2.953125 -47.328125 Z M 33.6875 -48.125 "/></g></g></g><g fill="#000000" fill-opacity="1"><g transform="translate(39.403624, 64.717059)"><g><path d="M 14.515625 -40.0625 C 12.515625 -40.28125 10.945312 -41.054688 9.8125 -42.390625 C 8.675781 -43.722656 8.207031 -45.257812 8.40625 -47 C 8.601562 -48.78125 9.398438 -50.1875 10.796875 -51.21875 C 12.203125 -52.25 13.90625 -52.65625 15.90625 -52.4375 C 17.875 -52.21875 19.425781 -51.445312 20.5625 -50.125 C 21.695312 -48.800781 22.164062 -47.25 21.96875 -45.46875 C 21.769531 -43.726562 20.96875 -42.335938 19.5625 -41.296875 C 18.164062 -40.253906 16.484375 -39.84375 14.515625 -40.0625 Z M 19.78125 -35.5625 L 15.578125 1.75 L 4.140625 0.46875 L 8.34375 -36.84375 Z M 19.78125 -35.5625 "/></g></g></g><g fill="#000000" fill-opacity="1"><g transform="translate(57.137777, 65.491195)"><g><path d="M 23.734375 -26.84375 C 25.242188 -28.238281 27.113281 -29.1875 29.34375 -29.6875 C 31.570312 -30.1875 33.941406 -30.085938 36.453125 -29.390625 C 39.429688 -28.554688 41.921875 -27.046875 43.921875 -24.859375 C 45.929688 -22.679688 47.242188 -19.988281 47.859375 -16.78125 C 48.472656 -13.582031 48.265625 -10.128906 47.234375 -6.421875 C 46.203125 -2.691406 44.59375 0.390625 42.40625 2.828125 C 40.21875 5.265625 37.695312 6.910156 34.84375 7.765625 C 32 8.628906 29.085938 8.644531 26.109375 7.8125 C 23.554688 7.101562 21.46875 5.976562 19.84375 4.4375 C 18.226562 2.894531 17.113281 1.128906 16.5 -0.859375 L 15.09375 4.203125 L 4.015625 1.125 L 17.359375 -46.828125 L 28.4375 -43.75 Z M 35.96875 -9.546875 C 36.738281 -12.304688 36.570312 -14.6875 35.46875 -16.6875 C 34.375 -18.695312 32.703125 -20.015625 30.453125 -20.640625 C 28.253906 -21.253906 26.164062 -20.972656 24.1875 -19.796875 C 22.207031 -18.628906 20.832031 -16.660156 20.0625 -13.890625 C 19.289062 -11.128906 19.453125 -8.734375 20.546875 -6.703125 C 21.640625 -4.679688 23.285156 -3.363281 25.484375 -2.75 C 27.691406 -2.144531 29.796875 -2.429688 31.796875 -3.609375 C 33.804688 -4.796875 35.195312 -6.773438 35.96875 -9.546875 Z M 35.96875 -9.546875 "/></g></g></g><g fill="#000000" fill-opacity="1"><g transform="translate(98.3863, 76.863561)"><g><path d="M 44.03125 1.234375 C 43.53125 2.179688 42.945312 3.140625 42.28125 4.109375 L 19.234375 -8 C 18.304688 -5.84375 18.140625 -3.910156 18.734375 -2.203125 C 19.335938 -0.492188 20.492188 0.804688 22.203125 1.703125 C 24.742188 3.046875 27.070312 2.894531 29.1875 1.25 L 40.03125 6.953125 C 38.332031 8.847656 36.296875 10.285156 33.921875 11.265625 C 31.554688 12.253906 29.023438 12.671875 26.328125 12.515625 C 23.628906 12.359375 20.925781 11.570312 18.21875 10.15625 C 14.96875 8.445312 12.4375 6.234375 10.625 3.515625 C 8.8125 0.796875 7.863281 -2.226562 7.78125 -5.5625 C 7.707031 -8.894531 8.578125 -12.285156 10.390625 -15.734375 C 12.203125 -19.191406 14.488281 -21.84375 17.25 -23.6875 C 20.019531 -25.53125 23.035156 -26.476562 26.296875 -26.53125 C 29.566406 -26.59375 32.851562 -25.757812 36.15625 -24.03125 C 39.375 -22.332031 41.878906 -20.148438 43.671875 -17.484375 C 45.460938 -14.828125 46.40625 -11.878906 46.5 -8.640625 C 46.601562 -5.398438 45.78125 -2.109375 44.03125 1.234375 Z M 35 -6.9375 C 35.914062 -8.675781 36.050781 -10.375 35.40625 -12.03125 C 34.757812 -13.6875 33.539062 -14.984375 31.75 -15.921875 C 30.039062 -16.816406 28.335938 -17.078125 26.640625 -16.703125 C 24.953125 -16.328125 23.492188 -15.300781 22.265625 -13.625 Z M 35 -6.9375 "/></g></g></g><g fill="#000000" fill-opacity="1"><g transform="translate(132.774246, 95.295074)"><g><path d="M 31.46875 -15.296875 C 33.789062 -16.109375 36.113281 -16.375 38.4375 -16.09375 C 40.769531 -15.8125 42.914062 -14.921875 44.875 -13.421875 L 37.453125 -3.75 L 34.9375 -5.671875 C 32.664062 -7.421875 30.582031 -8.242188 28.6875 -8.140625 C 26.800781 -8.035156 24.914062 -6.753906 23.03125 -4.296875 L 12.4375 9.53125 L 3.3125 2.53125 L 26.15625 -27.265625 L 35.28125 -20.265625 Z M 31.46875 -15.296875 "/></g></g></g><g fill="#000000" fill-opacity="1"><g transform="translate(154.201831, 110.911169)"><g><path d="M 60.5625 -4.265625 L 53.8125 2.015625 L 45.28125 -7.140625 L 17.46875 18.765625 L 9.625 10.328125 L 37.4375 -15.578125 L 28.90625 -24.734375 L 35.65625 -31.015625 Z M 60.5625 -4.265625 "/></g></g></g><g fill="#000000" fill-opacity="1"><g transform="translate(179.732153, 137.785959)"><g><path d="M 37.265625 23.5 C 36.347656 24.0625 35.359375 24.59375 34.296875 25.09375 L 20.640625 2.9375 C 18.742188 4.320312 17.613281 5.898438 17.25 7.671875 C 16.894531 9.441406 17.222656 11.144531 18.234375 12.78125 C 19.742188 15.226562 21.820312 16.289062 24.46875 15.96875 L 30.890625 26.40625 C 28.472656 27.164062 25.988281 27.363281 23.4375 27 C 20.894531 26.632812 18.5 25.695312 16.25 24.1875 C 14.007812 22.6875 12.09375 20.632812 10.5 18.03125 C 8.5625 14.90625 7.503906 11.707031 7.328125 8.4375 C 7.160156 5.175781 7.894531 2.09375 9.53125 -0.8125 C 11.164062 -3.71875 13.640625 -6.191406 16.953125 -8.234375 C 20.285156 -10.285156 23.609375 -11.398438 26.921875 -11.578125 C 30.242188 -11.753906 33.320312 -11.03125 36.15625 -9.40625 C 39 -7.789062 41.398438 -5.398438 43.359375 -2.234375 C 45.265625 0.859375 46.304688 4.007812 46.484375 7.21875 C 46.671875 10.425781 45.984375 13.445312 44.421875 16.28125 C 42.859375 19.113281 40.472656 21.519531 37.265625 23.5 Z M 33.65625 11.90625 C 35.332031 10.863281 36.3125 9.460938 36.59375 7.703125 C 36.882812 5.953125 36.5 4.21875 35.4375 2.5 C 34.425781 0.851562 33.09375 -0.234375 31.4375 -0.765625 C 29.789062 -1.304688 28.015625 -1.164062 26.109375 -0.34375 Z M 33.65625 11.90625 "/></g></g></g><g fill="#000000" fill-opacity="1"><g transform="translate(200.240604, 170.610055)"><g><path d="M 18.265625 -4.703125 C 21.929688 -6.046875 25.40625 -6.476562 28.6875 -6 C 31.976562 -5.519531 34.847656 -4.210938 37.296875 -2.078125 C 39.753906 0.046875 41.617188 2.832031 42.890625 6.28125 C 44.515625 10.707031 44.71875 14.832031 43.5 18.65625 C 42.28125 22.476562 39.734375 25.625 35.859375 28.09375 L 31.640625 16.625 C 33.984375 14.65625 34.640625 12.273438 33.609375 9.484375 C 32.890625 7.515625 31.539062 6.222656 29.5625 5.609375 C 27.582031 4.992188 25.160156 5.210938 22.296875 6.265625 C 19.441406 7.316406 17.460938 8.71875 16.359375 10.46875 C 15.253906 12.21875 15.0625 14.078125 15.78125 16.046875 C 16.8125 18.835938 18.851562 20.222656 21.90625 20.203125 L 26.125 31.671875 C 21.664062 32.265625 17.707031 31.5 14.25 29.375 C 10.800781 27.257812 8.269531 24.007812 6.65625 19.625 C 5.382812 16.175781 4.992188 12.84375 5.484375 9.625 C 5.972656 6.414062 7.3125 3.5625 9.5 1.0625 C 11.6875 -1.4375 14.609375 -3.359375 18.265625 -4.703125 Z M 18.265625 -4.703125 "/></g></g></g><g fill="#000000" fill-opacity="1"><g transform="translate(213.829269, 205.968416)"><g><path d="M 41.453125 21.546875 C 42.066406 25.804688 41.148438 29.425781 38.703125 32.40625 C 36.265625 35.394531 32.582031 37.242188 27.65625 37.953125 L 5.9375 41.09375 L 4.296875 29.765625 L 24.484375 26.859375 C 26.960938 26.492188 28.796875 25.566406 29.984375 24.078125 C 31.171875 22.597656 31.609375 20.769531 31.296875 18.59375 C 30.984375 16.414062 30.046875 14.78125 28.484375 13.6875 C 26.921875 12.601562 24.898438 12.242188 22.421875 12.609375 L 2.234375 15.515625 L 0.59375 4.125 L 49.859375 -2.984375 L 51.5 8.40625 L 34.40625 10.875 C 36.207031 11.789062 37.742188 13.175781 39.015625 15.03125 C 40.285156 16.894531 41.097656 19.066406 41.453125 21.546875 Z M 41.453125 21.546875 "/></g></g></g><g fill="#000000" fill-opacity="1"><g transform="translate(219.041979, 248.884231)"><g/></g></g><g fill="#000000" fill-opacity="1"><g transform="translate(219.187626, 261.962989)"><g><path d="M 45.734375 19.59375 L -1.328125 15.609375 L -0.359375 4.15625 L 46.703125 8.140625 Z M 45.734375 19.59375 "/></g></g></g><g fill="#000000" fill-opacity="1"><g transform="translate(218.545842, 279.837809)"><g><path d="M 37.3125 47.90625 L 28.328125 45.8125 L 31.1875 33.625 L -5.828125 24.96875 L -3.21875 13.75 L 33.796875 22.40625 L 36.65625 10.21875 L 45.640625 12.3125 Z M 37.3125 47.90625 "/></g></g></g><g fill="#000000" fill-opacity="1"><g transform="translate(209.231341, 316.522449)"><g/></g></g><g fill="#000000" fill-opacity="1"><g transform="translate(206.357627, 328.480005)"><g><path d="M -9.328125 33.328125 L -0.625 18 L -6.484375 11.421875 L -0.53125 0.9375 L 32.109375 39.109375 L 25.53125 50.6875 L -23.984375 42.25 L -17.96875 31.65625 Z M -0.140625 35.125 L 17.796875 38.5625 L 5.609375 25 Z M -0.140625 35.125 "/></g></g></g><g fill="#000000" fill-opacity="1"><g transform="translate(183.566128, 368.946387)"><g><path d="M 15.359375 39.421875 C 13.566406 41.359375 11.597656 42.691406 9.453125 43.421875 C 7.304688 44.148438 5.226562 44.3125 3.21875 43.90625 L 7.125 47.515625 L -0.703125 55.96875 L -28.1875 30.484375 C -30.71875 28.140625 -32.546875 25.507812 -33.671875 22.59375 C -34.796875 19.675781 -35.007812 16.628906 -34.3125 13.453125 C -33.625 10.273438 -31.863281 7.15625 -29.03125 4.09375 C -25.238281 0.0078125 -21.203125 -2.398438 -16.921875 -3.140625 C -12.648438 -3.890625 -8.710938 -2.921875 -5.109375 -0.234375 L -12.84375 8.09375 C -14.132812 7.375 -15.539062 7.226562 -17.0625 7.65625 C -18.59375 8.082031 -20.023438 9.019531 -21.359375 10.46875 C -22.984375 12.207031 -23.769531 14.054688 -23.71875 16.015625 C -23.675781 17.984375 -22.554688 19.988281 -20.359375 22.03125 L -16.46875 25.640625 C -16.976562 23.640625 -16.960938 21.539062 -16.421875 19.34375 C -15.890625 17.15625 -14.726562 15.09375 -12.9375 13.15625 C -10.832031 10.882812 -8.335938 9.363281 -5.453125 8.59375 C -2.578125 7.832031 0.425781 7.921875 3.5625 8.859375 C 6.707031 9.796875 9.695312 11.578125 12.53125 14.203125 C 15.351562 16.828125 17.335938 19.660156 18.484375 22.703125 C 19.640625 25.753906 19.929688 28.734375 19.359375 31.640625 C 18.796875 34.554688 17.460938 37.148438 15.359375 39.421875 Z M -6.65625 34.75 C -4.539062 36.707031 -2.332031 37.671875 -0.03125 37.640625 C 2.269531 37.609375 4.195312 36.753906 5.75 35.078125 C 7.300781 33.398438 8.015625 31.414062 7.890625 29.125 C 7.773438 26.84375 6.664062 24.726562 4.5625 22.78125 C 2.457031 20.832031 0.25 19.867188 -2.0625 19.890625 C -4.382812 19.910156 -6.320312 20.757812 -7.875 22.4375 C -9.425781 24.113281 -10.132812 26.097656 -10 28.390625 C -9.863281 30.679688 -8.75 32.800781 -6.65625 34.75 Z M -6.65625 34.75 "/></g></g></g><g fill="#000000" fill-opacity="1"><g transform="translate(154.523232, 400.350647)"><g><path d="M -21.296875 38.5625 C -21.910156 37.675781 -22.492188 36.722656 -23.046875 35.703125 L -1.734375 20.765625 C -3.222656 18.953125 -4.859375 17.921875 -6.640625 17.671875 C -8.429688 17.421875 -10.113281 17.847656 -11.6875 18.953125 C -14.039062 20.597656 -14.984375 22.738281 -14.515625 25.375 L -24.546875 32.390625 C -25.453125 30.015625 -25.796875 27.546875 -25.578125 24.984375 C -25.367188 22.421875 -24.578125 19.972656 -23.203125 17.640625 C -21.835938 15.316406 -19.90625 13.28125 -17.40625 11.53125 C -14.382812 9.414062 -11.25 8.175781 -8 7.8125 C -4.75 7.457031 -1.628906 8.007812 1.359375 9.46875 C 4.359375 10.925781 6.976562 13.253906 9.21875 16.453125 C 11.457031 19.648438 12.757812 22.898438 13.125 26.203125 C 13.5 29.503906 12.960938 32.617188 11.515625 35.546875 C 10.066406 38.472656 7.8125 41.007812 4.75 43.15625 C 1.78125 45.238281 -1.296875 46.460938 -4.484375 46.828125 C -7.671875 47.203125 -10.726562 46.6875 -13.65625 45.28125 C -16.582031 43.882812 -19.128906 41.644531 -21.296875 38.5625 Z M -9.890625 34.296875 C -8.765625 35.898438 -7.316406 36.796875 -5.546875 36.984375 C -3.785156 37.171875 -2.078125 36.6875 -0.421875 35.53125 C 1.148438 34.414062 2.15625 33.019531 2.59375 31.34375 C 3.039062 29.675781 2.804688 27.910156 1.890625 26.046875 Z M -9.890625 34.296875 "/></g></g></g><g fill="#000000" fill-opacity="1"><g transform="translate(123.208785, 422.914337)"><g><path d="M -10.125 45.484375 C -14.175781 47.191406 -17.960938 47.242188 -21.484375 45.640625 C -25.015625 44.046875 -27.75 40.953125 -29.6875 36.359375 L -38.234375 16.15625 L -27.703125 11.703125 L -19.765625 30.484375 C -18.785156 32.796875 -17.425781 34.335938 -15.6875 35.109375 C -13.945312 35.890625 -12.066406 35.851562 -10.046875 35 C -8.015625 34.144531 -6.671875 32.820312 -6.015625 31.03125 C -5.359375 29.238281 -5.519531 27.1875 -6.5 24.875 L -14.4375 6.09375 L -3.84375 1.625 L 10.765625 36.203125 L 0.171875 40.671875 L -1.765625 36.09375 C -2.191406 38.070312 -3.125 39.890625 -4.5625 41.546875 C -6 43.210938 -7.851562 44.523438 -10.125 45.484375 Z M -10.125 45.484375 "/></g></g></g><g fill="#000000" fill-opacity="1"><g transform="translate(84.118761, 439.500247)"><g><path d="M 1.6875 18.78125 C 2.425781 22.613281 2.296875 26.113281 1.296875 29.28125 C 0.296875 32.445312 -1.453125 35.066406 -3.953125 37.140625 C -6.453125 39.222656 -9.507812 40.613281 -13.125 41.3125 C -17.75 42.207031 -21.847656 41.742188 -25.421875 39.921875 C -29.003906 38.097656 -31.703125 35.078125 -33.515625 30.859375 L -21.5 28.53125 C -19.9375 31.164062 -17.695312 32.203125 -14.78125 31.640625 C -12.71875 31.234375 -11.222656 30.109375 -10.296875 28.265625 C -9.378906 26.421875 -9.210938 24 -9.796875 21 C -10.367188 18.019531 -11.425781 15.835938 -12.96875 14.453125 C -14.519531 13.078125 -16.328125 12.59375 -18.390625 13 C -21.304688 13.5625 -22.992188 15.347656 -23.453125 18.359375 L -35.46875 20.6875 C -35.34375 16.1875 -33.953125 12.398438 -31.296875 9.328125 C -28.640625 6.265625 -25.019531 4.289062 -20.4375 3.40625 C -16.820312 2.707031 -13.46875 2.859375 -10.375 3.859375 C -7.28125 4.859375 -4.675781 6.640625 -2.5625 9.203125 C -0.457031 11.765625 0.957031 14.957031 1.6875 18.78125 Z M 1.6875 18.78125 "/></g></g></g><g fill="#000000" fill-opacity="1"><g transform="translate(46.917652, 447.038981)"><g><path d="M -42.953125 37.046875 L -18.75 -18.046875 L -6.375 -17.90625 L -15.21875 1.09375 L -0.375 37.546875 L -13.21875 37.390625 L -21.640625 13.8125 L -30.515625 37.1875 Z M -42.953125 37.046875 "/></g></g></g></g></g></svg>